<svg width="94" height="17" viewBox="0 0 94 17" fill="none" xmlns="http://www.w3.org/2000/svg">
<path d="M6.08018 2.89713C7.15682 0.965712 7.69513 0 8.49999 0C9.30486 0 9.84316 0.965703 10.9198 2.89712L11.1983 3.3968C11.5043 3.94565 11.6572 4.22008 11.8958 4.40114C12.1343 4.58221 12.4313 4.64942 13.0255 4.78385L13.5664 4.90623C15.6571 5.37928 16.7025 5.61581 16.9512 6.41558C17.1999 7.21532 16.4873 8.04875 15.0619 9.71543L14.6932 10.1466C14.2881 10.6203 14.0856 10.8571 13.9945 11.1501C13.9034 11.4431 13.934 11.759 13.9952 12.391L14.051 12.9663C14.2665 15.19 14.3742 16.3019 13.7232 16.7962C13.072 17.2905 12.0932 16.8398 10.1356 15.9385L9.62922 15.7053C9.07298 15.4492 8.79486 15.3211 8.49999 15.3211C8.20513 15.3211 7.92701 15.4492 7.37077 15.7053L6.86434 15.9385C4.90677 16.8398 3.928 17.2905 3.27688 16.7962C2.62575 16.3019 2.7335 15.19 2.94899 12.9663L3.00473 12.391C3.06597 11.759 3.09659 11.4431 3.00548 11.1501C2.91438 10.8571 2.71186 10.6203 2.30683 10.1466L1.93808 9.71543C0.512763 8.04875 -0.199901 7.21532 0.0488086 6.41558C0.297518 5.61581 1.34288 5.37928 3.43361 4.90623L3.9745 4.78385C4.56862 4.64942 4.86568 4.58221 5.10419 4.40114C5.34271 4.22008 5.4957 3.94565 5.80164 3.3968L6.08018 2.89713Z" fill="#FFBE41"/>
<path d="M25.0802 2.89713C26.1568 0.965712 26.6951 0 27.5 0C28.3049 0 28.8432 0.965703 29.9198 2.89712L30.1983 3.3968C30.5043 3.94565 30.6572 4.22008 30.8958 4.40114C31.1343 4.58221 31.4313 4.64942 32.0255 4.78385L32.5664 4.90623C34.6571 5.37928 35.7025 5.61581 35.9512 6.41558C36.1999 7.21532 35.4873 8.04875 34.0619 9.71543L33.6932 10.1466C33.2881 10.6203 33.0856 10.8571 32.9945 11.1501C32.9034 11.4431 32.934 11.759 32.9952 12.391L33.051 12.9663C33.2665 15.19 33.3742 16.3019 32.7232 16.7962C32.072 17.2905 31.0932 16.8398 29.1356 15.9385L28.6292 15.7053C28.073 15.4492 27.7949 15.3211 27.5 15.3211C27.2051 15.3211 26.927 15.4492 26.3708 15.7053L25.8643 15.9385C23.9068 16.8398 22.928 17.2905 22.2769 16.7962C21.6258 16.3019 21.7335 15.19 21.949 12.9663L22.0047 12.391C22.066 11.759 22.0966 11.4431 22.0055 11.1501C21.9144 10.8571 21.7119 10.6203 21.3068 10.1466L20.9381 9.71543C19.5128 8.04875 18.8001 7.21532 19.0488 6.41558C19.2975 5.61581 20.3429 5.37928 22.4336 4.90623L22.9745 4.78385C23.5686 4.64942 23.8657 4.58221 24.1042 4.40114C24.3427 4.22008 24.4957 3.94565 24.8016 3.3968L25.0802 2.89713Z" fill="#FFBE41"/>
<path d="M45.0802 2.89713C46.1568 0.965712 46.6951 0 47.5 0C48.3049 0 48.8432 0.965703 49.9198 2.89712L50.1983 3.3968C50.5043 3.94565 50.6572 4.22008 50.8958 4.40114C51.1343 4.58221 51.4313 4.64942 52.0255 4.78385L52.5664 4.90623C54.6571 5.37928 55.7025 5.61581 55.9512 6.41558C56.1999 7.21532 55.4873 8.04875 54.0619 9.71543L53.6932 10.1466C53.2881 10.6203 53.0856 10.8571 52.9945 11.1501C52.9034 11.4431 52.934 11.759 52.9952 12.391L53.051 12.9663C53.2665 15.19 53.3742 16.3019 52.7232 16.7962C52.072 17.2905 51.0932 16.8398 49.1356 15.9385L48.6292 15.7053C48.073 15.4492 47.7949 15.3211 47.5 15.3211C47.2051 15.3211 46.927 15.4492 46.3708 15.7053L45.8643 15.9385C43.9068 16.8398 42.928 17.2905 42.2769 16.7962C41.6258 16.3019 41.7335 15.19 41.949 12.9663L42.0047 12.391C42.066 11.759 42.0966 11.4431 42.0055 11.1501C41.9144 10.8571 41.7119 10.6203 41.3068 10.1466L40.9381 9.71543C39.5128 8.04875 38.8001 7.21532 39.0488 6.41558C39.2975 5.61581 40.3429 5.37928 42.4336 4.90623L42.9745 4.78385C43.5686 4.64942 43.8657 4.58221 44.1042 4.40114C44.3427 4.22008 44.4957 3.94565 44.8016 3.3968L45.0802 2.89713Z" fill="#FFBE41"/>
<path d="M64.0802 2.89713C65.1568 0.965712 65.6951 0 66.5 0C67.3049 0 67.8432 0.965703 68.9198 2.89712L69.1983 3.3968C69.5043 3.94565 69.6572 4.22008 69.8958 4.40114C70.1343 4.58221 70.4313 4.64942 71.0255 4.78385L71.5664 4.90623C73.6571 5.37928 74.7025 5.61581 74.9512 6.41558C75.1999 7.21532 74.4873 8.04875 73.0619 9.71543L72.6932 10.1466C72.2881 10.6203 72.0856 10.8571 71.9945 11.1501C71.9034 11.4431 71.934 11.759 71.9952 12.391L72.051 12.9663C72.2665 15.19 72.3742 16.3019 71.7232 16.7962C71.072 17.2905 70.0932 16.8398 68.1356 15.9385L67.6292 15.7053C67.073 15.4492 66.7949 15.3211 66.5 15.3211C66.2051 15.3211 65.927 15.4492 65.3708 15.7053L64.8643 15.9385C62.9068 16.8398 61.928 17.2905 61.2769 16.7962C60.6258 16.3019 60.7335 15.19 60.949 12.9663L61.0047 12.391C61.066 11.759 61.0966 11.4431 61.0055 11.1501C60.9144 10.8571 60.7119 10.6203 60.3068 10.1466L59.9381 9.71543C58.5128 8.04875 57.8001 7.21532 58.0488 6.41558C58.2975 5.61581 59.3429 5.37928 61.4336 4.90623L61.9745 4.78385C62.5686 4.64942 62.8657 4.58221 63.1042 4.40114C63.3427 4.22008 63.4957 3.94565 63.8016 3.3968L64.0802 2.89713Z" fill="#FFBE41"/>
<path d="M83.0802 2.89713C84.1568 0.965712 84.6951 0 85.5 0C86.3049 0 86.8432 0.965703 87.9198 2.89712L88.1983 3.3968C88.5043 3.94565 88.6572 4.22008 88.8958 4.40114C89.1343 4.58221 89.4313 4.64942 90.0255 4.78385L90.5664 4.90623C92.6571 5.37928 93.7025 5.61581 93.9512 6.41558C94.1999 7.21532 93.4873 8.04875 92.0619 9.71543L91.6932 10.1466C91.2881 10.6203 91.0856 10.8571 90.9945 11.1501C90.9034 11.4431 90.934 11.759 90.9952 12.391L91.051 12.9663C91.2665 15.19 91.3742 16.3019 90.7232 16.7962C90.072 17.2905 89.0932 16.8398 87.1356 15.9385L86.6292 15.7053C86.073 15.4492 85.7949 15.3211 85.5 15.3211C85.2051 15.3211 84.927 15.4492 84.3708 15.7053L83.8643 15.9385C81.9068 16.8398 80.928 17.2905 80.2769 16.7962C79.6258 16.3019 79.7335 15.19 79.949 12.9663L80.0047 12.391C80.066 11.759 80.0966 11.4431 80.0055 11.1501C79.9144 10.8571 79.7119 10.6203 79.3068 10.1466L78.9381 9.71543C77.5128 8.04875 76.8001 7.21532 77.0488 6.41558C77.2975 5.61581 78.3429 5.37928 80.4336 4.90623L80.9745 4.78385C81.5686 4.64942 81.8657 4.58221 82.1042 4.40114C82.3427 4.22008 82.4957 3.94565 82.8016 3.3968L83.0802 2.89713Z" fill="#FFBE41"/>
</svg>
