<svg width="94" height="17" viewBox="0 0 94 17" fill="none" xmlns="http://www.w3.org/2000/svg">
<path d="M6.08018 2.89713C7.15682 0.965712 7.69513 0 8.49999 0C9.30486 0 9.84316 0.965703 10.9198 2.89712L11.1983 3.3968C11.5043 3.94565 11.6572 4.22008 11.8958 4.40114C12.1343 4.58221 12.4313 4.64942 13.0255 4.78385L13.5664 4.90623C15.6571 5.37928 16.7025 5.61581 16.9512 6.41558C17.1999 7.21532 16.4873 8.04875 15.0619 9.71543L14.6932 10.1466C14.2881 10.6203 14.0856 10.8571 13.9945 11.1501C13.9034 11.4431 13.934 11.759 13.9952 12.391L14.051 12.9663C14.2665 15.19 14.3742 16.3019 13.7232 16.7962C13.072 17.2905 12.0932 16.8398 10.1356 15.9385L9.62922 15.7053C9.07298 15.4492 8.79486 15.3211 8.49999 15.3211C8.20513 15.3211 7.92701 15.4492 7.37077 15.7053L6.86434 15.9385C4.90677 16.8398 3.928 17.2905 3.27688 16.7962C2.62575 16.3019 2.7335 15.19 2.94899 12.9663L3.00473 12.391C3.06597 11.759 3.09659 11.4431 3.00548 11.1501C2.91438 10.8571 2.71186 10.6203 2.30683 10.1466L1.93808 9.71543C0.512763 8.04875 -0.199901 7.21532 0.0488086 6.41558C0.297518 5.61581 1.34288 5.37928 3.43361 4.90623L3.9745 4.78385C4.56862 4.64942 4.86568 4.58221 5.10419 4.40114C5.34271 4.22008 5.4957 3.94565 5.80164 3.3968L6.08018 2.89713Z" fill="#FFBE41"/>
<path d="M29.483 3.14057L29.483 3.14056C28.9366 2.16024 28.5532 1.47518 28.211 1.02827C27.869 0.581698 27.6626 0.5 27.5 0.5C27.3373 0.5 27.131 0.581698 26.789 1.02828C26.4467 1.47519 26.0634 2.16025 25.5169 3.14058L25.2384 3.64025C25.2235 3.6669 25.2089 3.69323 25.1944 3.71923C24.9322 4.19054 24.7303 4.55361 24.4065 4.79939C24.0798 5.04738 23.6805 5.13734 23.1706 5.25218C23.1424 5.25854 23.1138 5.26498 23.0848 5.27152L22.9793 4.80523L23.0848 5.27152L22.5439 5.3939C21.4816 5.63427 20.7432 5.80282 20.2338 6.00357C19.7338 6.2006 19.5837 6.37934 19.5263 6.56405L19.5263 6.56406C19.4671 6.7542 19.4912 7.0012 19.7888 7.47403C20.0899 7.95225 20.5947 8.54457 21.3181 9.39046L21.3181 9.39047L21.6868 9.82167C21.6868 9.82167 21.6868 9.82167 21.6868 9.82167C21.7057 9.84376 21.7244 9.86554 21.7428 9.88706C22.0934 10.2963 22.3606 10.6083 22.4829 11.0016L29.483 3.14057ZM29.483 3.14057L29.7616 3.64025L29.7616 3.64028M29.483 3.14057L29.7616 3.64028M29.7616 3.64028C29.7766 3.66717 29.7914 3.69373 29.806 3.71996C30.0679 4.19084 30.2698 4.55377 30.5936 4.79944C30.9202 5.04741 31.3196 5.13736 31.8295 5.25221C31.8577 5.25856 31.8863 5.26499 31.9151 5.27152L32.0255 4.78385L31.9151 5.27152L32.4561 5.3939C32.4561 5.3939 32.4561 5.39391 32.4561 5.39391C33.5184 5.63427 34.2568 5.80282 34.7662 6.00357C35.2662 6.2006 35.4163 6.37935 35.4737 6.56405L35.9468 6.41693M29.7616 3.64028L35.9468 6.41693M35.9468 6.41693L35.4737 6.56406C35.5329 6.7542 35.5088 7.00121 35.2112 7.47403C34.9101 7.95225 34.4053 8.54457 33.6819 9.39046L33.6819 9.39048M35.9468 6.41693L33.6819 9.39048M33.6819 9.39048L33.3132 9.82167C33.2942 9.84384 33.2755 9.86572 33.257 9.88732C32.9065 10.2964 32.6393 10.6084 32.517 11.0016L32.517 11.0017M33.6819 9.39048L32.517 11.0017M32.517 11.0017C32.3954 11.3929 32.4357 11.8055 32.4891 12.352C32.4919 12.3807 32.4947 12.4097 32.4976 12.4392L32.4976 12.4392M32.517 11.0017L32.4976 12.4392M32.4976 12.4392L32.5533 13.0145C32.6626 14.1424 32.7381 14.9338 32.7125 15.5075C32.687 16.0804 32.5649 16.2886 32.4208 16.3979C32.2849 16.5011 32.0756 16.5586 31.557 16.41C31.032 16.2596 30.3395 15.9424 29.3448 15.4844C29.3448 15.4844 29.3448 15.4844 29.3447 15.4844L28.8384 15.2512L28.8383 15.2511M32.4976 12.4392L28.8383 15.2511M28.8383 15.2511C28.8104 15.2383 28.7829 15.2256 28.7557 15.213C28.2812 14.994 27.9068 14.8211 27.5 14.8211C27.0932 14.8211 26.7187 14.994 26.2443 15.213C26.2171 15.2256 26.1895 15.2383 26.1617 15.2511L26.1616 15.2512M28.8383 15.2511L26.1616 15.2512M26.1616 15.2512L25.6552 15.4844C24.6605 15.9423 23.968 16.2596 23.443 16.41C22.9244 16.5586 22.7151 16.5011 22.5792 16.3979C22.4351 16.2886 22.313 16.0804 22.2875 15.5075C22.2619 14.9338 22.3374 14.1424 22.4467 13.0145L21.949 12.9663M26.1616 15.2512L21.949 12.9663M21.949 12.9663L22.4467 13.0145L22.5024 12.4392M21.949 12.9663L22.5024 12.4392M22.5024 12.4392C22.5053 12.4098 22.5081 12.3807 22.5109 12.352M22.5024 12.4392L22.5109 12.352M22.5109 12.352C22.5643 11.8055 22.6046 11.3929 22.4829 11.0016L22.5109 12.352Z" stroke="#FFBE41"/>
<path d="M49.483 3.14057L49.483 3.14056C48.9366 2.16024 48.5532 1.47518 48.211 1.02827C47.869 0.581698 47.6626 0.5 47.5 0.5C47.3373 0.5 47.131 0.581698 46.789 1.02828C46.4467 1.47519 46.0634 2.16025 45.5169 3.14058L45.2384 3.64025C45.2235 3.6669 45.2089 3.69323 45.1944 3.71923C44.9322 4.19054 44.7303 4.55361 44.4065 4.79939C44.0798 5.04738 43.6805 5.13734 43.1706 5.25218C43.1424 5.25854 43.1138 5.26498 43.0848 5.27152L42.9793 4.80523L43.0848 5.27152L42.5439 5.3939C41.4816 5.63427 40.7432 5.80282 40.2338 6.00357C39.7338 6.2006 39.5837 6.37934 39.5263 6.56405L39.5263 6.56406C39.4671 6.7542 39.4912 7.0012 39.7888 7.47403C40.0899 7.95225 40.5947 8.54457 41.3181 9.39046L41.3181 9.39047L41.6868 9.82167C41.6868 9.82167 41.6868 9.82167 41.6868 9.82167C41.7057 9.84376 41.7244 9.86554 41.7428 9.88706C42.0934 10.2963 42.3606 10.6083 42.4829 11.0016L49.483 3.14057ZM49.483 3.14057L49.7616 3.64025L49.7616 3.64028M49.483 3.14057L49.7616 3.64028M49.7616 3.64028C49.7766 3.66717 49.7914 3.69373 49.806 3.71996C50.0679 4.19084 50.2698 4.55377 50.5936 4.79944C50.9202 5.04741 51.3196 5.13736 51.8295 5.25221C51.8577 5.25856 51.8863 5.26499 51.9151 5.27152L52.0255 4.78385L51.9151 5.27152L52.4561 5.3939C52.4561 5.3939 52.4561 5.39391 52.4561 5.39391C53.5184 5.63427 54.2568 5.80282 54.7662 6.00357C55.2662 6.2006 55.4163 6.37935 55.4737 6.56405L55.9468 6.41693M49.7616 3.64028L55.9468 6.41693M55.9468 6.41693L55.4737 6.56406C55.5329 6.7542 55.5088 7.00121 55.2112 7.47403C54.9101 7.95225 54.4053 8.54457 53.6819 9.39046L53.6819 9.39048M55.9468 6.41693L53.6819 9.39048M53.6819 9.39048L53.3132 9.82167C53.2942 9.84384 53.2755 9.86572 53.257 9.88732C52.9065 10.2964 52.6393 10.6084 52.517 11.0016L52.517 11.0017M53.6819 9.39048L52.517 11.0017M52.517 11.0017C52.3954 11.3929 52.4357 11.8055 52.4891 12.352C52.4919 12.3807 52.4947 12.4097 52.4976 12.4392L52.4976 12.4392M52.517 11.0017L52.4976 12.4392M52.4976 12.4392L52.5533 13.0145C52.6626 14.1424 52.7381 14.9338 52.7125 15.5075C52.687 16.0804 52.5649 16.2886 52.4208 16.3979C52.2849 16.5011 52.0756 16.5586 51.557 16.41C51.032 16.2596 50.3395 15.9424 49.3448 15.4844C49.3448 15.4844 49.3448 15.4844 49.3447 15.4844L48.8384 15.2512L48.8383 15.2511M52.4976 12.4392L48.8383 15.2511M48.8383 15.2511C48.8104 15.2383 48.7829 15.2256 48.7557 15.213C48.2812 14.994 47.9068 14.8211 47.5 14.8211C47.0932 14.8211 46.7187 14.994 46.2443 15.213C46.2171 15.2256 46.1895 15.2383 46.1617 15.2511L46.1616 15.2512M48.8383 15.2511L46.1616 15.2512M46.1616 15.2512L45.6552 15.4844C44.6605 15.9423 43.968 16.2596 43.443 16.41C42.9244 16.5586 42.7151 16.5011 42.5792 16.3979C42.4351 16.2886 42.313 16.0804 42.2875 15.5075C42.2619 14.9338 42.3374 14.1424 42.4467 13.0145L41.949 12.9663M46.1616 15.2512L41.949 12.9663M41.949 12.9663L42.4467 13.0145L42.5024 12.4392M41.949 12.9663L42.5024 12.4392M42.5024 12.4392C42.5053 12.4098 42.5081 12.3807 42.5109 12.352M42.5024 12.4392L42.5109 12.352M42.5109 12.352C42.5643 11.8055 42.6046 11.3929 42.4829 11.0016L42.5109 12.352Z" stroke="#FFBE41"/>
<path d="M68.483 3.14057L68.483 3.14056C67.9366 2.16024 67.5532 1.47518 67.211 1.02827C66.869 0.581698 66.6626 0.5 66.5 0.5C66.3373 0.5 66.131 0.581698 65.789 1.02828C65.4467 1.47519 65.0634 2.16025 64.5169 3.14058L64.2384 3.64025C64.2235 3.6669 64.2089 3.69323 64.1944 3.71923C63.9322 4.19054 63.7303 4.55361 63.4065 4.79939C63.0798 5.04738 62.6805 5.13734 62.1706 5.25218C62.1424 5.25854 62.1138 5.26498 62.0848 5.27152L61.9793 4.80523L62.0848 5.27152L61.5439 5.3939C60.4816 5.63427 59.7432 5.80282 59.2338 6.00357C58.7338 6.2006 58.5837 6.37934 58.5263 6.56405L58.5263 6.56406C58.4671 6.7542 58.4912 7.0012 58.7888 7.47403C59.0899 7.95225 59.5947 8.54457 60.3181 9.39046L60.3181 9.39047L60.6868 9.82167C60.6868 9.82167 60.6868 9.82167 60.6868 9.82167C60.7057 9.84376 60.7244 9.86554 60.7428 9.88706C61.0934 10.2963 61.3606 10.6083 61.4829 11.0016L68.483 3.14057ZM68.483 3.14057L68.7616 3.64025L68.7616 3.64028M68.483 3.14057L68.7616 3.64028M68.7616 3.64028C68.7766 3.66717 68.7914 3.69373 68.806 3.71996C69.0679 4.19084 69.2698 4.55377 69.5936 4.79944C69.9202 5.04741 70.3196 5.13736 70.8295 5.25221C70.8577 5.25856 70.8863 5.26499 70.9151 5.27152L71.0255 4.78385L70.9151 5.27152L71.4561 5.3939C71.4561 5.3939 71.4561 5.39391 71.4561 5.39391C72.5184 5.63427 73.2568 5.80282 73.7662 6.00357C74.2662 6.2006 74.4163 6.37935 74.4737 6.56405L74.9468 6.41693M68.7616 3.64028L74.9468 6.41693M74.9468 6.41693L74.4737 6.56406C74.5329 6.7542 74.5088 7.00121 74.2112 7.47403C73.9101 7.95225 73.4053 8.54457 72.6819 9.39046L72.6819 9.39048M74.9468 6.41693L72.6819 9.39048M72.6819 9.39048L72.3132 9.82167C72.2942 9.84384 72.2755 9.86572 72.257 9.88732C71.9065 10.2964 71.6393 10.6084 71.517 11.0016L71.517 11.0017M72.6819 9.39048L71.517 11.0017M71.517 11.0017C71.3954 11.3929 71.4357 11.8055 71.4891 12.352C71.4919 12.3807 71.4947 12.4097 71.4976 12.4392L71.4976 12.4392M71.517 11.0017L71.4976 12.4392M71.4976 12.4392L71.5533 13.0145C71.6626 14.1424 71.7381 14.9338 71.7125 15.5075C71.687 16.0804 71.5649 16.2886 71.4208 16.3979C71.2849 16.5011 71.0756 16.5586 70.557 16.41C70.032 16.2596 69.3395 15.9424 68.3448 15.4844C68.3448 15.4844 68.3448 15.4844 68.3447 15.4844L67.8384 15.2512L67.8383 15.2511M71.4976 12.4392L67.8383 15.2511M67.8383 15.2511C67.8104 15.2383 67.7829 15.2256 67.7557 15.213C67.2812 14.994 66.9068 14.8211 66.5 14.8211C66.0932 14.8211 65.7187 14.994 65.2443 15.213C65.2171 15.2256 65.1895 15.2383 65.1617 15.2511L65.1616 15.2512M67.8383 15.2511L65.1616 15.2512M65.1616 15.2512L64.6552 15.4844C63.6605 15.9423 62.968 16.2596 62.443 16.41C61.9244 16.5586 61.7151 16.5011 61.5792 16.3979C61.4351 16.2886 61.313 16.0804 61.2875 15.5075C61.2619 14.9338 61.3374 14.1424 61.4467 13.0145L60.949 12.9663M65.1616 15.2512L60.949 12.9663M60.949 12.9663L61.4467 13.0145L61.5024 12.4392M60.949 12.9663L61.5024 12.4392M61.5024 12.4392C61.5053 12.4098 61.5081 12.3807 61.5109 12.352M61.5024 12.4392L61.5109 12.352M61.5109 12.352C61.5643 11.8055 61.6046 11.3929 61.4829 11.0016L61.5109 12.352Z" stroke="#FFBE41"/>
<path d="M87.483 3.14057L87.483 3.14056C86.9366 2.16024 86.5532 1.47518 86.211 1.02827C85.869 0.581698 85.6626 0.5 85.5 0.5C85.3373 0.5 85.131 0.581698 84.789 1.02828C84.4467 1.47519 84.0634 2.16025 83.5169 3.14058L83.2384 3.64025C83.2235 3.6669 83.2089 3.69323 83.1944 3.71923C82.9322 4.19054 82.7303 4.55361 82.4065 4.79939C82.0798 5.04738 81.6805 5.13734 81.1706 5.25218C81.1424 5.25854 81.1138 5.26498 81.0848 5.27152L80.9793 4.80523L81.0848 5.27152L80.5439 5.3939C79.4816 5.63427 78.7432 5.80282 78.2338 6.00357C77.7338 6.2006 77.5837 6.37934 77.5263 6.56405L77.5263 6.56406C77.4671 6.7542 77.4912 7.0012 77.7888 7.47403C78.0899 7.95225 78.5947 8.54457 79.3181 9.39046L79.3181 9.39047L79.6868 9.82167C79.6868 9.82167 79.6868 9.82167 79.6868 9.82167C79.7057 9.84376 79.7244 9.86554 79.7428 9.88706C80.0934 10.2963 80.3606 10.6083 80.4829 11.0016L87.483 3.14057ZM87.483 3.14057L87.7616 3.64025L87.7616 3.64028M87.483 3.14057L87.7616 3.64028M87.7616 3.64028C87.7766 3.66717 87.7914 3.69373 87.806 3.71996C88.0679 4.19084 88.2698 4.55377 88.5936 4.79944C88.9202 5.04741 89.3196 5.13736 89.8295 5.25221C89.8577 5.25856 89.8863 5.26499 89.9151 5.27152L90.0255 4.78385L89.9151 5.27152L90.4561 5.3939C90.4561 5.3939 90.4561 5.39391 90.4561 5.39391C91.5184 5.63427 92.2568 5.80282 92.7662 6.00357C93.2662 6.2006 93.4163 6.37935 93.4737 6.56405L93.9468 6.41693M87.7616 3.64028L93.9468 6.41693M93.9468 6.41693L93.4737 6.56406C93.5329 6.7542 93.5088 7.00121 93.2112 7.47403C92.9101 7.95225 92.4053 8.54457 91.6819 9.39046L91.6819 9.39048M93.9468 6.41693L91.6819 9.39048M91.6819 9.39048L91.3132 9.82167C91.2942 9.84384 91.2755 9.86572 91.257 9.88732C90.9065 10.2964 90.6393 10.6084 90.517 11.0016L90.517 11.0017M91.6819 9.39048L90.517 11.0017M90.517 11.0017C90.3954 11.3929 90.4357 11.8055 90.4891 12.352C90.4919 12.3807 90.4947 12.4097 90.4976 12.4392L90.4976 12.4392M90.517 11.0017L90.4976 12.4392M90.4976 12.4392L90.5533 13.0145C90.6626 14.1424 90.7381 14.9338 90.7125 15.5075C90.687 16.0804 90.5649 16.2886 90.4208 16.3979C90.2849 16.5011 90.0756 16.5586 89.557 16.41C89.032 16.2596 88.3395 15.9424 87.3448 15.4844C87.3448 15.4844 87.3448 15.4844 87.3447 15.4844L86.8384 15.2512L86.8383 15.2511M90.4976 12.4392L86.8383 15.2511M86.8383 15.2511C86.8104 15.2383 86.7829 15.2256 86.7557 15.213C86.2812 14.994 85.9068 14.8211 85.5 14.8211C85.0932 14.8211 84.7187 14.994 84.2443 15.213C84.2171 15.2256 84.1895 15.2383 84.1617 15.2511L84.1616 15.2512M86.8383 15.2511L84.1616 15.2512M84.1616 15.2512L83.6552 15.4844C82.6605 15.9423 81.968 16.2596 81.443 16.41C80.9244 16.5586 80.7151 16.5011 80.5792 16.3979C80.4351 16.2886 80.313 16.0804 80.2875 15.5075C80.2619 14.9338 80.3374 14.1424 80.4467 13.0145L79.949 12.9663M84.1616 15.2512L79.949 12.9663M79.949 12.9663L80.4467 13.0145L80.5024 12.4392M79.949 12.9663L80.5024 12.4392M80.5024 12.4392C80.5053 12.4098 80.5081 12.3807 80.5109 12.352M80.5024 12.4392L80.5109 12.352M80.5109 12.352C80.5643 11.8055 80.6046 11.3929 80.4829 11.0016L80.5109 12.352Z" stroke="#FFBE41"/>
</svg>
