<svg width="86" height="17" viewBox="0 0 86 17" fill="none" xmlns="http://www.w3.org/2000/svg">
<path d="M5.62253 3.31871C6.61814 1.53267 7.11592 0.639648 7.86021 0.639648C8.60449 0.639648 9.10228 1.53266 10.0978 3.3187L10.3554 3.78078C10.6384 4.28831 10.7798 4.54209 11.0004 4.70952C11.221 4.87696 11.4956 4.93911 12.0451 5.06342L12.5453 5.17659C14.4786 5.61404 15.4453 5.83276 15.6753 6.57234C15.9053 7.31188 15.2463 8.08258 13.9282 9.62381L13.5872 10.0226C13.2127 10.4605 13.0254 10.6795 12.9411 10.9505C12.8569 11.2214 12.8852 11.5136 12.9418 12.098L12.9934 12.63C13.1926 14.6863 13.2923 15.7145 12.6902 16.1716C12.0881 16.6287 11.183 16.2119 9.37275 15.3785L8.90444 15.1628C8.39006 14.926 8.13288 14.8075 7.86021 14.8075C7.58754 14.8075 7.33035 14.926 6.81598 15.1628L6.34767 15.3785C4.53745 16.2119 3.63234 16.6287 3.03023 16.1716C2.42811 15.7145 2.52775 14.6863 2.72702 12.63L2.77857 12.098C2.8352 11.5136 2.86351 11.2214 2.77926 10.9505C2.69501 10.6795 2.50775 10.4605 2.1332 10.0226L1.79221 9.62381C0.474168 8.08258 -0.184855 7.31188 0.0451348 6.57234C0.275124 5.83276 1.2418 5.61404 3.17516 5.17659L3.67535 5.06342C4.22474 4.93911 4.49944 4.87696 4.72001 4.70952C4.94057 4.54209 5.08204 4.28832 5.36496 3.78078L5.62253 3.31871Z" fill="#FFBE41"/>
<path d="M23.1924 3.31871C24.188 1.53267 24.6858 0.639648 25.4301 0.639648C26.1744 0.639648 26.6722 1.53266 27.6677 3.3187L27.9253 3.78078C28.2083 4.28831 28.3497 4.54209 28.5703 4.70952C28.7909 4.87696 29.0655 4.93911 29.6149 5.06342L30.1152 5.17659C32.0485 5.61404 33.0152 5.83276 33.2452 6.57234C33.4752 7.31188 32.8162 8.08258 31.4981 9.62381L31.1571 10.0226C30.7826 10.4605 30.5953 10.6795 30.511 10.9505C30.4268 11.2214 30.4551 11.5136 30.5117 12.098L30.5633 12.63C30.7625 14.6863 30.8622 15.7145 30.2601 16.1716C29.6579 16.6287 28.7528 16.2119 26.9426 15.3785L26.4743 15.1628C25.9599 14.926 25.7028 14.8075 25.4301 14.8075C25.1574 14.8075 24.9002 14.926 24.3859 15.1628L23.9176 15.3785C22.1073 16.2119 21.2022 16.6287 20.6001 16.1716C19.998 15.7145 20.0976 14.6863 20.2969 12.63L20.3485 12.098C20.4051 11.5136 20.4334 11.2214 20.3491 10.9505C20.2649 10.6795 20.0776 10.4605 19.7031 10.0226L19.3621 9.62381C18.0441 8.08258 17.385 7.31188 17.615 6.57234C17.845 5.83276 18.8117 5.61404 20.745 5.17659L21.2452 5.06342C21.7946 4.93911 22.0693 4.87696 22.2899 4.70952C22.5105 4.54209 22.6519 4.28832 22.9348 3.78078L23.1924 3.31871Z" fill="#FFBE41"/>
<path d="M40.7623 3.31871C41.7579 1.53267 42.2557 0.639648 43 0.639648C43.7443 0.639648 44.242 1.53266 45.2376 3.3187L45.4952 3.78078C45.7782 4.28831 45.9196 4.54209 46.1402 4.70952C46.3608 4.87696 46.6354 4.93911 47.1848 5.06342L47.6851 5.17659C49.6184 5.61404 50.5851 5.83276 50.8151 6.57234C51.0451 7.31188 50.3861 8.08258 49.068 9.62381L48.727 10.0226C48.3525 10.4605 48.1652 10.6795 48.0809 10.9505C47.9967 11.2214 48.025 11.5136 48.0816 12.098L48.1332 12.63C48.3324 14.6863 48.4321 15.7145 47.83 16.1716C47.2278 16.6287 46.3227 16.2119 44.5125 15.3785L44.0442 15.1628C43.5298 14.926 43.2726 14.8075 43 14.8075C42.7273 14.8075 42.4701 14.926 41.9557 15.1628L41.4874 15.3785C39.6772 16.2119 38.7721 16.6287 38.17 16.1716C37.5679 15.7145 37.6675 14.6863 37.8668 12.63L37.9183 12.098C37.975 11.5136 38.0033 11.2214 37.919 10.9505C37.8348 10.6795 37.6475 10.4605 37.273 10.0226L36.932 9.62381C35.6139 8.08258 34.9549 7.31188 35.1849 6.57234C35.4149 5.83276 36.3816 5.61404 38.3149 5.17659L38.8151 5.06342C39.3645 4.93911 39.6392 4.87696 39.8598 4.70952C40.0803 4.54209 40.2218 4.28832 40.5047 3.78078L40.7623 3.31871Z" fill="#FFBE41"/>
<path d="M58.3322 3.31871C59.3278 1.53267 59.8256 0.639648 60.5699 0.639648C61.3141 0.639648 61.8119 1.53266 62.8075 3.3187L63.0651 3.78078C63.3481 4.28831 63.4895 4.54209 63.7101 4.70952C63.9307 4.87696 64.2053 4.93911 64.7547 5.06342L65.2549 5.17659C67.1882 5.61404 68.155 5.83276 68.385 6.57234C68.6149 7.31188 67.9559 8.08258 66.6379 9.62381L66.2969 10.0226C65.9223 10.4605 65.735 10.6795 65.6508 10.9505C65.5666 11.2214 65.5949 11.5136 65.6515 12.098L65.703 12.63C65.9023 14.6863 66.002 15.7145 65.3999 16.1716C64.7977 16.6287 63.8926 16.2119 62.0824 15.3785L61.6141 15.1628C61.0997 14.926 60.8425 14.8075 60.5699 14.8075C60.2972 14.8075 60.04 14.926 59.5256 15.1628L59.0573 15.3785C57.2471 16.2119 56.342 16.6287 55.7399 16.1716C55.1378 15.7145 55.2374 14.6863 55.4367 12.63L55.4882 12.098C55.5449 11.5136 55.5732 11.2214 55.4889 10.9505C55.4047 10.6795 55.2174 10.4605 54.8429 10.0226L54.5019 9.62381C53.1838 8.08258 52.5248 7.31188 52.7548 6.57234C52.9848 5.83276 53.9515 5.61404 55.8848 5.17659L56.385 5.06342C56.9344 4.93911 57.2091 4.87696 57.4297 4.70952C57.6502 4.54209 57.7917 4.28832 58.0746 3.78078L58.3322 3.31871Z" fill="#FFBE41"/>
<path d="M75.9021 3.31871C76.8977 1.53267 77.3955 0.639648 78.1397 0.639648C78.884 0.639648 79.3818 1.53266 80.3774 3.3187L80.635 3.78078C80.9179 4.28831 81.0593 4.54209 81.28 4.70952C81.5005 4.87696 81.7752 4.93911 82.3246 5.06342L82.8248 5.17659C84.7581 5.61404 85.7248 5.83276 85.9548 6.57234C86.1848 7.31188 85.5258 8.08258 84.2077 9.62381L83.8668 10.0226C83.4922 10.4605 83.3049 10.6795 83.2207 10.9505C83.1365 11.2214 83.1648 11.5136 83.2214 12.098L83.2729 12.63C83.4722 14.6863 83.5719 15.7145 82.9698 16.1716C82.3676 16.6287 81.4625 16.2119 79.6523 15.3785L79.184 15.1628C78.6696 14.926 78.4124 14.8075 78.1397 14.8075C77.8671 14.8075 77.6099 14.926 77.0955 15.1628L76.6272 15.3785C74.817 16.2119 73.9119 16.6287 73.3098 16.1716C72.7077 15.7145 72.8073 14.6863 73.0066 12.63L73.0581 12.098C73.1147 11.5136 73.1431 11.2214 73.0588 10.9505C72.9746 10.6795 72.7873 10.4605 72.4127 10.0226L72.0717 9.62381C70.7537 8.08258 70.0947 7.31188 70.3247 6.57234C70.5547 5.83276 71.5213 5.61404 73.4547 5.17659L73.9549 5.06342C74.5043 4.93911 74.779 4.87696 74.9995 4.70952C75.2201 4.54209 75.3616 4.28832 75.6445 3.78078L75.9021 3.31871Z" fill="#FFBE41"/>
</svg>
