<svg width="94" height="17" viewBox="0 0 94 17" fill="none" xmlns="http://www.w3.org/2000/svg">
<path d="M6.08018 2.89713C7.15682 0.965712 7.69513 0 8.49999 0C9.30486 0 9.84316 0.965703 10.9198 2.89712L11.1983 3.3968C11.5043 3.94565 11.6572 4.22008 11.8958 4.40114C12.1343 4.58221 12.4313 4.64942 13.0255 4.78385L13.5664 4.90623C15.6571 5.37928 16.7025 5.61581 16.9512 6.41558C17.1999 7.21532 16.4873 8.04875 15.0619 9.71543L14.6932 10.1466C14.2881 10.6203 14.0856 10.8571 13.9945 11.1501C13.9034 11.4431 13.934 11.759 13.9952 12.391L14.051 12.9663C14.2665 15.19 14.3742 16.3019 13.7232 16.7962C13.072 17.2905 12.0932 16.8398 10.1356 15.9385L9.62922 15.7053C9.07298 15.4492 8.79486 15.3211 8.49999 15.3211C8.20513 15.3211 7.92701 15.4492 7.37077 15.7053L6.86434 15.9385C4.90677 16.8398 3.928 17.2905 3.27688 16.7962C2.62575 16.3019 2.7335 15.19 2.94899 12.9663L3.00473 12.391C3.06597 11.759 3.09659 11.4431 3.00548 11.1501C2.91438 10.8571 2.71186 10.6203 2.30683 10.1466L1.93808 9.71543C0.512763 8.04875 -0.199901 7.21532 0.0488086 6.41558C0.297518 5.61581 1.34288 5.37928 3.43361 4.90623L3.9745 4.78385C4.56862 4.64942 4.86568 4.58221 5.10419 4.40114C5.34271 4.22008 5.4957 3.94565 5.80164 3.3968L6.08018 2.89713Z" fill="#FFBE41"/>
<path d="M25.0802 2.89713C26.1568 0.965712 26.6951 0 27.5 0C28.3049 0 28.8432 0.965703 29.9198 2.89712L30.1983 3.3968C30.5043 3.94565 30.6572 4.22008 30.8958 4.40114C31.1343 4.58221 31.4313 4.64942 32.0255 4.78385L32.5664 4.90623C34.6571 5.37928 35.7025 5.61581 35.9512 6.41558C36.1999 7.21532 35.4873 8.04875 34.0619 9.71543L33.6932 10.1466C33.2881 10.6203 33.0856 10.8571 32.9945 11.1501C32.9034 11.4431 32.934 11.759 32.9952 12.391L33.051 12.9663C33.2665 15.19 33.3742 16.3019 32.7232 16.7962C32.072 17.2905 31.0932 16.8398 29.1356 15.9385L28.6292 15.7053C28.073 15.4492 27.7949 15.3211 27.5 15.3211C27.2051 15.3211 26.927 15.4492 26.3708 15.7053L25.8643 15.9385C23.9068 16.8398 22.928 17.2905 22.2769 16.7962C21.6258 16.3019 21.7335 15.19 21.949 12.9663L22.0047 12.391C22.066 11.759 22.0966 11.4431 22.0055 11.1501C21.9144 10.8571 21.7119 10.6203 21.3068 10.1466L20.9381 9.71543C19.5128 8.04875 18.8001 7.21532 19.0488 6.41558C19.2975 5.61581 20.3429 5.37928 22.4336 4.90623L22.9745 4.78385C23.5686 4.64942 23.8657 4.58221 24.1042 4.40114C24.3427 4.22008 24.4957 3.94565 24.8016 3.3968L25.0802 2.89713Z" fill="#FFBE41"/>
<path d="M45.0802 2.89713C46.1568 0.965712 46.6951 0 47.5 0C48.3049 0 48.8432 0.965703 49.9198 2.89712L50.1983 3.3968C50.5043 3.94565 50.6572 4.22008 50.8958 4.40114C51.1343 4.58221 51.4313 4.64942 52.0255 4.78385L52.5664 4.90623C54.6571 5.37928 55.7025 5.61581 55.9512 6.41558C56.1999 7.21532 55.4873 8.04875 54.0619 9.71543L53.6932 10.1466C53.2881 10.6203 53.0856 10.8571 52.9945 11.1501C52.9034 11.4431 52.934 11.759 52.9952 12.391L53.051 12.9663C53.2665 15.19 53.3742 16.3019 52.7232 16.7962C52.072 17.2905 51.0932 16.8398 49.1356 15.9385L48.6292 15.7053C48.073 15.4492 47.7949 15.3211 47.5 15.3211C47.2051 15.3211 46.927 15.4492 46.3708 15.7053L45.8643 15.9385C43.9068 16.8398 42.928 17.2905 42.2769 16.7962C41.6258 16.3019 41.7335 15.19 41.949 12.9663L42.0047 12.391C42.066 11.759 42.0966 11.4431 42.0055 11.1501C41.9144 10.8571 41.7119 10.6203 41.3068 10.1466L40.9381 9.71543C39.5128 8.04875 38.8001 7.21532 39.0488 6.41558C39.2975 5.61581 40.3429 5.37928 42.4336 4.90623L42.9745 4.78385C43.5686 4.64942 43.8657 4.58221 44.1042 4.40114C44.3427 4.22008 44.4957 3.94565 44.8016 3.3968L45.0802 2.89713Z" fill="#FFBE41"/>
<path d="M64.0802 2.89713C65.1568 0.965712 65.6951 0 66.5 0C67.3049 0 67.8432 0.965703 68.9198 2.89712L69.1983 3.3968C69.5043 3.94565 69.6572 4.22008 69.8958 4.40114C70.1343 4.58221 70.4313 4.64942 71.0255 4.78385L71.5664 4.90623C73.6571 5.37928 74.7025 5.61581 74.9512 6.41558C75.1999 7.21532 74.4873 8.04875 73.0619 9.71543L72.6932 10.1466C72.2881 10.6203 72.0856 10.8571 71.9945 11.1501C71.9034 11.4431 71.934 11.759 71.9952 12.391L72.051 12.9663C72.2665 15.19 72.3742 16.3019 71.7232 16.7962C71.072 17.2905 70.0932 16.8398 68.1356 15.9385L67.6292 15.7053C67.073 15.4492 66.7949 15.3211 66.5 15.3211C66.2051 15.3211 65.927 15.4492 65.3708 15.7053L64.8643 15.9385C62.9068 16.8398 61.928 17.2905 61.2769 16.7962C60.6258 16.3019 60.7335 15.19 60.949 12.9663L61.0047 12.391C61.066 11.759 61.0966 11.4431 61.0055 11.1501C60.9144 10.8571 60.7119 10.6203 60.3068 10.1466L59.9381 9.71543C58.5128 8.04875 57.8001 7.21532 58.0488 6.41558C58.2975 5.61581 59.3429 5.37928 61.4336 4.90623L61.9745 4.78385C62.5686 4.64942 62.8657 4.58221 63.1042 4.40114C63.3427 4.22008 63.4957 3.94565 63.8016 3.3968L64.0802 2.89713Z" fill="#FFBE41"/>
<path d="M87.483 3.14057L87.483 3.14056C86.9366 2.16024 86.5532 1.47518 86.211 1.02827C85.869 0.581698 85.6626 0.5 85.5 0.5C85.3373 0.5 85.131 0.581698 84.789 1.02828C84.4467 1.47519 84.0634 2.16025 83.5169 3.14058L83.2384 3.64025C83.2235 3.6669 83.2089 3.69323 83.1944 3.71923C82.9322 4.19054 82.7303 4.55361 82.4065 4.79939C82.0798 5.04738 81.6805 5.13734 81.1706 5.25218C81.1424 5.25854 81.1138 5.26498 81.0848 5.27152L80.9793 4.80523L81.0848 5.27152L80.5439 5.3939C79.4816 5.63427 78.7432 5.80282 78.2338 6.00357C77.7338 6.2006 77.5837 6.37934 77.5263 6.56405L77.5263 6.56406C77.4671 6.7542 77.4912 7.0012 77.7888 7.47403C78.0899 7.95225 78.5947 8.54457 79.3181 9.39046L79.3181 9.39047L79.6868 9.82167C79.6868 9.82167 79.6868 9.82167 79.6868 9.82167C79.7057 9.84376 79.7244 9.86554 79.7428 9.88706C80.0934 10.2963 80.3606 10.6083 80.4829 11.0016L87.483 3.14057ZM87.483 3.14057L87.7616 3.64025L87.7616 3.64028M87.483 3.14057L87.7616 3.64028M87.7616 3.64028C87.7766 3.66717 87.7914 3.69373 87.806 3.71996C88.0679 4.19084 88.2698 4.55377 88.5936 4.79944C88.9202 5.04741 89.3196 5.13736 89.8295 5.25221C89.8577 5.25856 89.8863 5.26499 89.9151 5.27152L90.0255 4.78385L89.9151 5.27152L90.4561 5.3939C90.4561 5.3939 90.4561 5.39391 90.4561 5.39391C91.5184 5.63427 92.2568 5.80282 92.7662 6.00357C93.2662 6.2006 93.4163 6.37935 93.4737 6.56405L93.9468 6.41693M87.7616 3.64028L93.9468 6.41693M93.9468 6.41693L93.4737 6.56406C93.5329 6.7542 93.5088 7.00121 93.2112 7.47403C92.9101 7.95225 92.4053 8.54457 91.6819 9.39046L91.6819 9.39048M93.9468 6.41693L91.6819 9.39048M91.6819 9.39048L91.3132 9.82167C91.2942 9.84384 91.2755 9.86572 91.257 9.88732C90.9065 10.2964 90.6393 10.6084 90.517 11.0016L90.517 11.0017M91.6819 9.39048L90.517 11.0017M90.517 11.0017C90.3954 11.3929 90.4357 11.8055 90.4891 12.352C90.4919 12.3807 90.4947 12.4097 90.4976 12.4392L90.4976 12.4392M90.517 11.0017L90.4976 12.4392M90.4976 12.4392L90.5533 13.0145C90.6626 14.1424 90.7381 14.9338 90.7125 15.5075C90.687 16.0804 90.5649 16.2886 90.4208 16.3979C90.2849 16.5011 90.0756 16.5586 89.557 16.41C89.032 16.2596 88.3395 15.9424 87.3448 15.4844C87.3448 15.4844 87.3448 15.4844 87.3447 15.4844L86.8384 15.2512L86.8383 15.2511M90.4976 12.4392L86.8383 15.2511M86.8383 15.2511C86.8104 15.2383 86.7829 15.2256 86.7557 15.213C86.2812 14.994 85.9068 14.8211 85.5 14.8211C85.0932 14.8211 84.7187 14.994 84.2443 15.213C84.2171 15.2256 84.1895 15.2383 84.1617 15.2511L84.1616 15.2512M86.8383 15.2511L84.1616 15.2512M84.1616 15.2512L83.6552 15.4844C82.6605 15.9423 81.968 16.2596 81.443 16.41C80.9244 16.5586 80.7151 16.5011 80.5792 16.3979C80.4351 16.2886 80.313 16.0804 80.2875 15.5075C80.2619 14.9338 80.3374 14.1424 80.4467 13.0145L79.949 12.9663M84.1616 15.2512L79.949 12.9663M79.949 12.9663L80.4467 13.0145L80.5024 12.4392M79.949 12.9663L80.5024 12.4392M80.5024 12.4392C80.5053 12.4098 80.5081 12.3807 80.5109 12.352M80.5024 12.4392L80.5109 12.352M80.5109 12.352C80.5643 11.8055 80.6046 11.3929 80.4829 11.0016L80.5109 12.352Z" stroke="#FFBE41"/>
</svg>
