<svg width="16" height="17" viewBox="0 0 16 17" fill="none" xmlns="http://www.w3.org/2000/svg">
<path d="M5.62253 3.31871C6.61814 1.53267 7.11592 0.639648 7.86021 0.639648C8.60449 0.639648 9.10228 1.53266 10.0978 3.3187L10.3554 3.78078C10.6384 4.28831 10.7798 4.54209 11.0004 4.70952C11.221 4.87696 11.4956 4.93911 12.0451 5.06342L12.5453 5.17659C14.4786 5.61404 15.4453 5.83276 15.6753 6.57234C15.9053 7.31188 15.2463 8.08258 13.9282 9.62381L13.5872 10.0226C13.2127 10.4605 13.0254 10.6795 12.9411 10.9505C12.8569 11.2214 12.8852 11.5136 12.9418 12.098L12.9934 12.63C13.1926 14.6863 13.2923 15.7145 12.6902 16.1716C12.0881 16.6287 11.183 16.2119 9.37275 15.3785L8.90444 15.1628C8.39006 14.926 8.13288 14.8075 7.86021 14.8075C7.58754 14.8075 7.33035 14.926 6.81598 15.1628L6.34767 15.3785C4.53745 16.2119 3.63234 16.6287 3.03023 16.1716C2.42811 15.7145 2.52775 14.6863 2.72702 12.63L2.77857 12.098C2.8352 11.5136 2.86351 11.2214 2.77926 10.9505C2.69501 10.6795 2.50775 10.4605 2.1332 10.0226L1.79221 9.62381C0.474168 8.08258 -0.184855 7.31188 0.0451348 6.57234C0.275124 5.83276 1.2418 5.61404 3.17516 5.17659L3.67535 5.06342C4.22474 4.93911 4.49944 4.87696 4.72001 4.70952C4.94057 4.54209 5.08204 4.28832 5.36496 3.78078L5.62253 3.31871Z" fill="#FFBE41"/>
</svg>
