<svg width="13" height="13" viewBox="0 0 13 13">
    <path d="M4.64955 2.21545C5.47286 0.738486 5.88451 0 6.49999 0C7.11548 0 7.52712 0.738479 8.35041 2.21544L8.56342 2.59755C8.79741 3.01726 8.91435 3.22712 9.0968 3.36558C9.27919 3.50404 9.5063 3.55544 9.96065 3.65824L10.3743 3.75182C11.9731 4.11357 12.7725 4.29444 12.9627 4.90603C13.1529 5.5176 12.6079 6.15492 11.5179 7.42945L11.236 7.75919C10.9262 8.12137 10.7713 8.30246 10.7017 8.52652C10.632 8.75057 10.6554 8.99218 10.7022 9.47545L10.7449 9.91537C10.9097 11.6159 10.9921 12.4662 10.4942 12.8441C9.99621 13.2221 9.24773 12.8775 7.75079 12.1883L7.36352 12.0099C6.93816 11.8141 6.72548 11.7161 6.49999 11.7161C6.27451 11.7161 6.06183 11.8141 5.63647 12.0099L5.2492 12.1883C3.75224 12.8775 3.00376 13.2221 2.50585 12.8441C2.00793 12.4662 2.09032 11.6159 2.25511 9.91537L2.29773 9.47545C2.34457 8.99218 2.36798 8.75057 2.29831 8.52652C2.22864 8.30246 2.07378 8.12137 1.76405 7.75919L1.48206 7.42945C0.392113 6.15492 -0.152866 5.5176 0.0373242 4.90603C0.227514 4.29444 1.02691 4.11357 2.6257 3.75182L3.03933 3.65824C3.49365 3.55544 3.72081 3.50404 3.90321 3.36558C4.0856 3.22712 4.20259 3.01727 4.43655 2.59755L4.64955 2.21545Z"/>
</svg>